<?xml version="1.0" encoding="utf-8"?>
<!-- Generator: Adobe Illustrator 23.0.5, SVG Export Plug-In . SVG Version: 6.00 Build 0)  -->
<svg version="1.1" id="Capa_1" xmlns="http://www.w3.org/2000/svg" xmlns:xlink="http://www.w3.org/1999/xlink" x="0px" y="0px"
	 viewBox="0 0 512 512" style="enable-background:new 0 0 512 512;" xml:space="preserve">
<style type="text/css">
	.st0{fill:#919191;}
	.st1{fill:#DFE7F4;}
	.st2{fill:#C7CFE1;}
	.st3{fill:#575F64;}
	.st4{fill:#474F54;}
	.st5{fill:#80D4FF;}
	.st6{fill:#66B3FF;}
	.st7{fill:#F0F7FF;}
	.st8{fill:#32393F;}
</style>
<rect y="16" class="st0" width="512" height="480"/>
<g>
	<g>
		<g>
			<path class="st1" d="M296.8,376h-81.6l-34.8,105h151.2L296.8,376z"/>
		</g>
	</g>
	<path class="st2" d="M256,481h75.6l-34.8-105H256L256,481z"/>
	<g>
		<path class="st3" d="M512,406H0V16h512V406z"/>
	</g>
	<path class="st4" d="M256,16h256v390H256V16z"/>
	<path class="st5" d="M30,46h452v330H30V46z"/>
	<path class="st6" d="M256,46h226v330H256V46z"/>
	<g id="_Online_Education_1_">
		<path class="st7" d="M121,466h270v30H121V466z"/>
		<g>
			<path class="st1" d="M391,181h30v135h-30V181z"/>
		</g>
	</g>
	<g>
		<path class="st1" d="M256,466h135v30H256V466z"/>
	</g>
	<g>
		<path class="st4" d="M256,324.1l-105-42v-99.2l105,42l105-42V282L256,324.1z"/>
	</g>
	<path class="st8" d="M361,282v-99.2l-105,42v99.2L361,282z"/>
	<g>
		<path class="st3" d="M256,257.2L65.6,181L256,104.8L446.4,181L256,257.2z"/>
	</g>
	<path class="st4" d="M446.4,181L256,104.8v152.3L446.4,181z"/>
</g>
</svg>
