<svg xmlns="http://www.w3.org/2000/svg" viewBox="0 0 43.38 45.87"><defs><style>.cls-1{fill:#c41c44;stroke:#000;stroke-miterlimit:10;}</style></defs><title>kiame</title><g id="Capa_2" data-name="Capa 2"><g id="Capa_1-2" data-name="Capa 1"><g id="Grupo_2" data-name="Grupo 2"><g id="Grupo_1" data-name="Grupo 1"><path id="Trazado_1" data-name="Trazado 1" class="cls-1" d="M27.45,9.21A20.57,20.57,0,0,0,23.83,12a10.18,10.18,0,0,0-.54,1,10.5,10.5,0,0,0-.94,2.71,9.6,9.6,0,0,0-.16,2.45,14.27,14.27,0,0,1-.43,3.74,15.66,15.66,0,0,1-1.41,3.6l0,0c-.22.4-.46.8-.71,1.18a.3.3,0,0,1,0-.08s0,0,0,0a17,17,0,0,0,1.38-3.78,15.64,15.64,0,0,0,.41-3.92,11.13,11.13,0,0,1,.16-2.58,11.84,11.84,0,0,1,.91-2.85l.08-.17a20.54,20.54,0,0,0-1.36,1.72A19.11,19.11,0,0,0,18,23.17a12.71,12.71,0,0,1-.63,2.29l1.47,2.28.1.13,3,4.68,3.58,5.52a15.88,15.88,0,0,0,3.81-2.53A14.36,14.36,0,0,0,31,33.79,13.08,13.08,0,0,0,32.18,32l-8-11.5-1.59-2.29,4.68-4.43,3.6-3.41,2.4-2.27a7.79,7.79,0,0,0,1.35-1.67A22.64,22.64,0,0,0,27.45,9.21ZM36.82,39.1a22.33,22.33,0,0,0-2-3.21l0,0-.66-1-1.07-1.53c-.2.28-.4.56-.62.83A13.16,13.16,0,0,1,31,35.84a14,14,0,0,1-1.2,1,15.89,15.89,0,0,1-3.54,1.9l-.22.08.44.66.25.4.19.29c.41.71.89,1.5,1.42,2.37a6.79,6.79,0,0,0,1.95,2.08,5.19,5.19,0,0,0,3,.78,4.31,4.31,0,0,0,3.09-1.06,3.32,3.32,0,0,0,1.14-2.52A6.26,6.26,0,0,0,36.82,39.1ZM34.05,1.62A4.25,4.25,0,0,0,31,.51a3.82,3.82,0,0,0-2.32.62,16.05,16.05,0,0,0-2.12,1.92L9.3,21V5.83a5.69,5.69,0,0,0-1.22-4A4.22,4.22,0,0,0,4.87.5,4,4,0,0,0,1.69,1.84a5.83,5.83,0,0,0-1.17,4s0,22.46,0,22.46v-1.2a18.24,18.24,0,0,0,4.43,0,17.22,17.22,0,0,0,3.67-.88,14.86,14.86,0,0,0,1.54-.66,13.31,13.31,0,0,0,4.19-3.18c.23-.27.45-.56.66-.85a11,11,0,0,0,1-3,15.49,15.49,0,0,1,1-3.74A15.88,15.88,0,0,1,19,11.43a17.93,17.93,0,0,1,5.55-4.92A20.63,20.63,0,0,1,31,4.16l.4-.07a23.22,23.22,0,0,1,3.81-.31A3.5,3.5,0,0,0,34.05,1.62ZM5.91,45.25a3.44,3.44,0,0,0,.55-.15Z"/></g><path id="Trazado_2" data-name="Trazado 2" class="cls-1" d="M39.59,4v.1a23,23,0,0,0-4.38.54,19.81,19.81,0,0,0-2.43.67,20.39,20.39,0,0,0-4.27,2,16.61,16.61,0,0,0-1.45,1,15.41,15.41,0,0,0-1.86,1.75A12.66,12.66,0,0,0,23.83,12q-.3.48-.54,1a10.5,10.5,0,0,0-.94,2.71,9.65,9.65,0,0,0-.16,2.46,14.25,14.25,0,0,1-.43,3.73,15.48,15.48,0,0,1-1.41,3.6l0,0c-.22.4-.46.8-.72,1.18a.56.56,0,0,0,.05-.08s0,0,0,0a17,17,0,0,0,1.38-3.78,15.64,15.64,0,0,0,.41-3.92,11.16,11.16,0,0,1,.16-2.58,12,12,0,0,1,.91-2.85l.08-.17a20.54,20.54,0,0,0-1.36,1.72A19.1,19.1,0,0,0,18,23.18a13.18,13.18,0,0,1-.63,2.29l-.86-1.33L9.3,31v9a5.66,5.66,0,0,1-1.24,4,4,4,0,0,1-1.6,1.06l-.55.16h0a6,6,0,0,1-1,.1,4.34,4.34,0,0,1-2.16-.6,4.1,4.1,0,0,1-1.6-1.6,5.51,5.51,0,0,1-.5-1.92c-.06-.73-.08-1.78-.08-3.17,0-2.07,0-9.7,0-9.82V27.08a18.24,18.24,0,0,0,4.43,0,17.22,17.22,0,0,0,3.67-.88,14.86,14.86,0,0,0,1.54-.66,13.31,13.31,0,0,0,4.19-3.18c.23-.27.45-.56.66-.85a11,11,0,0,0,1-3,15.62,15.62,0,0,1,1-3.74A16.3,16.3,0,0,1,19,11.42,18.08,18.08,0,0,1,24.58,6.5,20.61,20.61,0,0,1,31,4.16l.4-.08a23.13,23.13,0,0,1,3.81-.31v0h.41A24.16,24.16,0,0,1,39.59,4Z"/><path id="Trazado_3" data-name="Trazado 3" class="cls-1" d="M34.85,35.87a16.24,16.24,0,0,1-2.51,1.85,17.24,17.24,0,0,1-5.46,2.08l-.19,0-.15,0a17.9,17.9,0,0,1-4.07.25c-.64,0-1.27-.1-1.9-.19v-.09a17.91,17.91,0,0,0,5.43-1l.22-.08a15.82,15.82,0,0,0,3.53-1.9,14.16,14.16,0,0,0,1.21-1,14,14,0,0,0,1.54-1.63c.22-.27.42-.55.61-.83l1.07,1.53Z"/><path id="Trazado_4" data-name="Trazado 4" class="cls-1" d="M42.86,6.32v.12a23,23,0,0,0-7.39,1.49,20.27,20.27,0,0,0-4.63,2.49,15.85,15.85,0,0,0-1.57,1.27,16.27,16.27,0,0,0-2,2.13,15.54,15.54,0,0,0-2.07,3.4A13.63,13.63,0,0,0,24,23.54a19,19,0,0,1-.46,4.57A20.86,20.86,0,0,1,22,32.51l0,0a22.88,22.88,0,0,1-5.73,7.33,26.16,26.16,0,0,1-8.14,4.69c-.53.19-1.07.37-1.62.53A4.17,4.17,0,0,0,8.07,44a5.74,5.74,0,0,0,1.24-4V33.45c.57-.24,1.13-.51,1.67-.8a14.55,14.55,0,0,0,4.54-3.9A13.1,13.1,0,0,0,18,23.17a18.84,18.84,0,0,1,4.63-10c.38-.44.79-.86,1.21-1.26a20.7,20.7,0,0,1,3.63-2.74A22.08,22.08,0,0,1,34.6,6.48L35,6.4A23.59,23.59,0,0,1,42.86,6.32Z"/></g></g></g></svg>